<?xml version="1.0" encoding="utf-8"?>
<!-- Generator: Adobe Illustrator 16.0.3, SVG Export Plug-In . SVG Version: 6.00 Build 0)  -->
<!DOCTYPE svg PUBLIC "-//W3C//DTD SVG 1.1//EN" "http://www.w3.org/Graphics/SVG/1.1/DTD/svg11.dtd">
<svg version="1.1" id="레이어_1" xmlns="http://www.w3.org/2000/svg" xmlns:xlink="http://www.w3.org/1999/xlink" x="0px"
	 y="0px" width="64px" height="64px" viewBox="0 0 64 64" enable-background="new 0 0 64 64" xml:space="preserve">
<g>
	<g>
		<path fill="#FFCC00" d="M18.471,37.969L47.977,9.414L48.586,10c0.051,0.051,0.067,0.217,0.027,0.278L25.806,44.489L18.471,37.969z
			"/>
		<path d="M49.293,9.293l-0.586-0.586c-0.196-0.196-0.458-0.295-0.719-0.295c-0.256,0-0.512,0.094-0.707,0.283L18.032,37.002
			C18.021,37.002,18.011,37,18,37c-4.971,0-9,4.029-9,9s4.029,9,9,9s9-4.029,9-9c0-0.455-0.045-0.898-0.109-1.335l22.555-33.833
			C49.75,10.375,49.682,9.682,49.293,9.293z M18,52c-3.309,0-6-2.691-6-6s2.691-6,6-6s6,2.691,6,6S21.309,52,18,52z M26.142,42.183
			c-1.087-2.313-3.122-4.087-5.611-4.815l24.861-24.06L26.142,42.183z"/>
		<path fill="#FFCC00" d="M15.387,10.277c-0.04-0.06-0.023-0.226,0.027-0.277L16,9.414l29.529,28.555l-7.335,6.521L15.387,10.277z"
			/>
		<circle cx="32" cy="29" r="1"/>
		<path d="M46,37c-0.011,0-0.021,0.002-0.032,0.002L16.719,8.695c-0.195-0.189-0.451-0.283-0.707-0.283
			c-0.261,0-0.522,0.099-0.719,0.295l-0.586,0.586c-0.389,0.389-0.457,1.082-0.152,1.539l22.555,33.833
			C37.045,45.102,37,45.545,37,46c0,4.971,4.029,9,9,9s9-4.029,9-9S50.971,37,46,37z M18.608,13.308l24.861,24.06
			c-2.489,0.729-4.524,2.503-5.611,4.815L18.608,13.308z M46,52c-3.309,0-6-2.691-6-6s2.691-6,6-6s6,2.691,6,6S49.309,52,46,52z"/>
	</g>
</g>
</svg>
