<?xml version="1.0" encoding="utf-8"?>
<!-- Generator: Adobe Illustrator 16.0.3, SVG Export Plug-In . SVG Version: 6.00 Build 0)  -->
<!DOCTYPE svg PUBLIC "-//W3C//DTD SVG 1.1 Tiny//EN" "http://www.w3.org/Graphics/SVG/1.1/DTD/svg11-tiny.dtd">
<svg version="1.1" baseProfile="tiny" id="레이어_1"
	 xmlns="http://www.w3.org/2000/svg" xmlns:xlink="http://www.w3.org/1999/xlink" x="0px" y="0px" width="64px" height="64px"
	 viewBox="0 0 64 64" xml:space="preserve">
<path fill="none" stroke="#000000" stroke-width="2" stroke-linecap="round" stroke-linejoin="round" stroke-miterlimit="10" d="
	M14,26c0,0,0-4,0-6s-2-3-4-3H9c0,0,0,14,0,16s1,3,1,3s7,7,8,8s1,2,1,3s0,2,0,2h8c0,0,0-8,0-9s0-2-1-3s-6-6-7-7s-4-1-5,0s-1,1-1,1
	l7,7"/>
<path fill="none" stroke="#000000" stroke-width="2" stroke-linecap="round" stroke-linejoin="round" stroke-miterlimit="10" d="
	M50,26c0,0,0-4,0-6s2-3,4-3h1c0,0,0,14,0,16s-1,3-1,3s-7,7-8,8s-1,2-1,3s0,2,0,2h-8c0,0,0-8,0-9s0-2,1-3s6-6,7-7s4-1,5,0s1,1,1,1
	l-7,7"/>
<g>
	<path d="M15.5,25.25"/>
</g>
<g>
	<path fill-rule="evenodd" fill="#FFCC00" d="M31.325,28.738c-1.142-1.044-2.249-1.984-3.32-2.893
		c-1.097-0.931-2.231-1.894-3.389-2.958c-0.674-0.619-1.33-1.229-1.948-1.882c-1.337-1.409-2.146-3.045-2.404-4.863
		c-0.437-3.077,1.363-5.886,4.377-6.833C25.293,9.104,25.968,9,26.646,9c2.161,0,4.167,1.058,5.354,2.792
		C33.187,10.058,35.192,9,37.354,9c0.679,0,1.354,0.104,2.006,0.309c3.014,0.947,4.813,3.757,4.377,6.833
		c-0.259,1.817-1.067,3.454-2.404,4.863c-0.618,0.652-1.274,1.262-1.948,1.882c-1.157,1.064-2.292,2.027-3.389,2.958
		c-1.071,0.909-2.179,1.849-3.32,2.893L32,29.355L31.325,28.738z"/>
	<path d="M37.354,10c0.565,0,1.141,0.085,1.706,0.263c2.552,0.802,4.05,3.181,3.687,5.739c-0.237,1.67-0.976,3.088-2.14,4.315
		c-0.604,0.637-1.251,1.238-1.899,1.834C36.443,24.233,34.331,25.867,32,28c-2.331-2.133-4.443-3.767-6.707-5.849
		c-0.648-0.596-1.296-1.197-1.899-1.834c-1.164-1.227-1.902-2.646-2.14-4.315c-0.363-2.558,1.135-4.937,3.687-5.739
		C25.506,10.085,26.081,10,26.646,10c1.942,0,3.779,1.004,4.759,2.726C31.584,13.04,32,13.938,32,13.938s0.416-0.898,0.595-1.212
		C33.574,11.003,35.41,10,37.354,10 M37.354,8C35.309,8,33.383,8.823,32,10.226C30.617,8.823,28.691,8,26.646,8
		c-0.78,0-1.556,0.119-2.305,0.354c-3.491,1.097-5.575,4.357-5.068,7.928c0.288,2.027,1.187,3.848,2.669,5.411
		c0.64,0.675,1.31,1.298,1.997,1.93c1.172,1.078,2.313,2.047,3.419,2.984c1.063,0.903,2.164,1.836,3.291,2.868L32,30.711
		l1.351-1.235c1.127-1.032,2.228-1.965,3.291-2.868c1.105-0.938,2.247-1.907,3.419-2.984c0.688-0.632,1.357-1.255,1.997-1.93
		c1.482-1.563,2.381-3.383,2.669-5.41c0.507-3.571-1.577-6.832-5.067-7.928C38.909,8.119,38.134,8,37.354,8L37.354,8z"/>
</g>
<rect x="17" y="49" fill-rule="evenodd" fill="#FFCC00" stroke="#000000" stroke-width="2" stroke-miterlimit="10" width="12" height="6"/>
<rect x="35" y="49" fill-rule="evenodd" fill="#FFCC00" stroke="#000000" stroke-width="2" stroke-miterlimit="10" width="12" height="6"/>
</svg>
