<?xml version="1.0" encoding="utf-8"?>
<!-- Generator: Adobe Illustrator 16.0.3, SVG Export Plug-In . SVG Version: 6.00 Build 0)  -->
<!DOCTYPE svg PUBLIC "-//W3C//DTD SVG 1.1 Tiny//EN" "http://www.w3.org/Graphics/SVG/1.1/DTD/svg11-tiny.dtd">
<svg version="1.1" baseProfile="tiny" id="레이어_1"
	 xmlns="http://www.w3.org/2000/svg" xmlns:xlink="http://www.w3.org/1999/xlink" x="0px" y="0px" width="64px" height="64px"
	 viewBox="0 0 64 64" xml:space="preserve">
<g>
	<path fill="#FFCC00" d="M32,54c-2.757,0-5-2.243-5-5V21h10v28C37,51.757,34.757,54,32,54z"/>
</g>
<g>
	<path fill="#FFCC00" d="M49,54c-2.757,0-5-2.243-5-5V36h10v13C54,51.757,51.757,54,49,54z"/>
</g>
<g>
	<path fill="#FFCC00" d="M15,54c-2.757,0-5-2.243-5-5V29h10v20C20,51.757,17.757,54,15,54z"/>
</g>
<path d="M18,13v36c0,1.654-1.346,3-3,3s-3-1.346-3-3V13H18 M21,10H9v39c0,3.313,2.687,6,6,6s6-2.687,6-6V10L21,10z"/>
<path d="M8.5,13C7.672,13,7,12.329,7,11.5S7.672,10,8.5,10h13c0.828,0,1.5,0.671,1.5,1.5S22.328,13,21.5,13H8.5z"/>
<path d="M35,13v36c0,1.654-1.346,3-3,3s-3-1.346-3-3V13H35 M38,10H26v39c0,3.313,2.687,6,6,6s6-2.687,6-6V10L38,10z"/>
<path d="M25.5,13c-0.828,0-1.5-0.671-1.5-1.5s0.672-1.5,1.5-1.5h13c0.828,0,1.5,0.671,1.5,1.5S39.328,13,38.5,13H25.5z"/>
<path d="M52,13v36c0,1.654-1.346,3-3,3s-3-1.346-3-3V13H52 M55,10H43v39c0,3.313,2.687,6,6,6s6-2.687,6-6V10L55,10z"/>
<path d="M42.5,13c-0.828,0-1.5-0.671-1.5-1.5s0.672-1.5,1.5-1.5h13c0.828,0,1.5,0.671,1.5,1.5S56.328,13,55.5,13H42.5z"/>
</svg>
