<?xml version="1.0" encoding="utf-8"?>
<!-- Generator: Adobe Illustrator 16.0.3, SVG Export Plug-In . SVG Version: 6.00 Build 0)  -->
<!DOCTYPE svg PUBLIC "-//W3C//DTD SVG 1.1//EN" "http://www.w3.org/Graphics/SVG/1.1/DTD/svg11.dtd">
<svg version="1.1" id="레이어_1" xmlns="http://www.w3.org/2000/svg" xmlns:xlink="http://www.w3.org/1999/xlink" x="0px"
	 y="0px" width="64px" height="64px" viewBox="0 0 64 64" enable-background="new 0 0 64 64" xml:space="preserve">
<g>
	<g>
		<circle fill="#FFCC00" cx="32" cy="34" r="23"/>
		<path d="M11.862,19.188c3.206-4.352,7.789-7.623,13.105-9.179l-1.081-1.544c-1.262-1.802-3.769-2.245-5.57-0.982l-6.555,4.588
			c-1.802,1.262-2.244,3.769-0.982,5.571L11.862,19.188z"/>
		<path d="M52.138,19.188l1.082-1.546c1.262-1.802,0.819-4.309-0.982-5.571l-6.553-4.588c-1.802-1.262-4.309-0.82-5.57,0.982
			l-1.082,1.544C44.35,11.566,48.932,14.837,52.138,19.188z"/>
		<g>
			<path d="M32,11C19.298,11,9,21.297,9,34c0,12.702,10.298,23,23,23s23-10.298,23-23C55,21.297,44.702,11,32,11z M32,54
				c-11.028,0-20-8.972-20-20c0-11.028,8.972-20,20-20s20,8.972,20,20C52,45.028,43.028,54,32,54z"/>
			<path d="M42,32h-8V20c0-1.1-0.9-2-2-2s-2,0.9-2,2v14c0,1.1,0.9,2,2,2h10c1.1,0,2-0.9,2-2C44,32.9,43.1,32,42,32z"/>
		</g>
	</g>
</g>
</svg>
