<?xml version="1.0" encoding="utf-8"?>
<!-- Generator: Adobe Illustrator 16.0.3, SVG Export Plug-In . SVG Version: 6.00 Build 0)  -->
<!DOCTYPE svg PUBLIC "-//W3C//DTD SVG 1.1 Tiny//EN" "http://www.w3.org/Graphics/SVG/1.1/DTD/svg11-tiny.dtd">
<svg version="1.1" baseProfile="tiny" id="레이어_1"
	 xmlns="http://www.w3.org/2000/svg" xmlns:xlink="http://www.w3.org/1999/xlink" x="0px" y="0px" width="64px" height="64px"
	 viewBox="0 0 64 64" xml:space="preserve">
<circle fill="#FFCC00" cx="32" cy="32" r="32"/>
<path fill="#E6E6E6" d="M54,50c0,1.65-1.35,3-3,3H30c-1.65,0-3-1.35-3-3V36c0-1.65,1.35-3,3-3h21c1.65,0,3,1.35,3,3V50z"/>
<path fill-rule="evenodd" d="M45.114,38.16c-1.531-0.48-3.178,0.146-3.95,1.506c-0.109,0.191-0.364,0.74-0.364,0.74
	s-0.254-0.549-0.363-0.74c-0.772-1.359-2.42-1.986-3.951-1.506c-1.559,0.49-2.475,1.944-2.252,3.508
	c0.145,1.021,0.596,1.887,1.307,2.637c0.37,0.389,0.765,0.757,1.161,1.121c1.384,1.271,2.674,2.271,4.099,3.574
	c1.425-1.304,2.716-2.303,4.099-3.574c0.396-0.364,0.793-0.732,1.161-1.121c0.711-0.75,1.162-1.616,1.308-2.637
	C47.589,40.104,46.674,38.65,45.114,38.16z"/>
<polygon fill="#E6E6E6" points="60,33 50,33 50,43 "/>
<path fill="#FFFFFF" d="M42,34c0,1.65-1.35,3-3,3H15c-1.65,0-3-1.35-3-3V18c0-1.65,1.35-3,3-3h24c1.65,0,3,1.35,3,3V34z"/>
<path fill-rule="evenodd" fill="#FFCC00" d="M31.114,21.161c-1.531-0.48-3.178,0.146-3.95,1.505c-0.109,0.192-0.364,0.74-0.364,0.74
	s-0.254-0.548-0.363-0.74c-0.772-1.359-2.42-1.986-3.951-1.505c-1.559,0.49-2.475,1.944-2.252,3.507
	c0.145,1.021,0.596,1.887,1.307,2.637c0.37,0.389,0.765,0.757,1.161,1.121c1.384,1.271,2.674,2.271,4.099,3.574
	c1.425-1.304,2.716-2.303,4.099-3.574c0.396-0.364,0.793-0.732,1.161-1.121c0.711-0.75,1.162-1.616,1.308-2.637
	C33.589,23.104,32.674,21.651,31.114,21.161z"/>
<polygon fill="#FFFFFF" points="16,25 16,15 6,15 "/>
</svg>
