<?xml version="1.0" encoding="utf-8"?>
<!-- Generator: Adobe Illustrator 16.0.3, SVG Export Plug-In . SVG Version: 6.00 Build 0)  -->
<!DOCTYPE svg PUBLIC "-//W3C//DTD SVG 1.1 Tiny//EN" "http://www.w3.org/Graphics/SVG/1.1/DTD/svg11-tiny.dtd">
<svg version="1.1" baseProfile="tiny" id="레이어_1"
	 xmlns="http://www.w3.org/2000/svg" xmlns:xlink="http://www.w3.org/1999/xlink" x="0px" y="0px" width="64px" height="64px"
	 viewBox="0 0 64 64" xml:space="preserve">
<circle fill="#FFCC00" cx="32" cy="32" r="32"/>
<path fill="#CCCCCC" d="M48,49c0,1.65-1.35,3-3,3H19c-1.65,0-3-1.35-3-3V15c0-1.65,1.35-3,3-3h26c1.65,0,3,1.35,3,3V49z"/>
<path fill="#FFFFFF" d="M47,49c0,1.65-1.35,3-3,3H19c-1.65,0-3-1.35-3-3V15c0-1.65,1.35-3,3-3h25c1.65,0,3,1.35,3,3V49z"/>
<path fill="#FFCC00" d="M34,28c0,0.55-0.45,1-1,1h-2c-0.55,0-1-0.45-1-1V18c0-0.55,0.45-1,1-1h2c0.55,0,1,0.45,1,1V28z"/>
<path fill="#FFCC00" d="M37,21c0.55,0,1,0.45,1,1v2c0,0.55-0.45,1-1,1H27c-0.55,0-1-0.45-1-1v-2c0-0.55,0.45-1,1-1H37z"/>
<line fill="none" stroke="#000000" stroke-width="2" stroke-linecap="round" stroke-miterlimit="10" x1="14" y1="19" x2="18" y2="19"/>
<line fill="none" stroke="#000000" stroke-width="2" stroke-linecap="round" stroke-miterlimit="10" x1="14" y1="24" x2="18" y2="24"/>
<line fill="none" stroke="#000000" stroke-width="2" stroke-linecap="round" stroke-miterlimit="10" x1="14" y1="29" x2="18" y2="29"/>
<line fill="none" stroke="#000000" stroke-width="2" stroke-linecap="round" stroke-miterlimit="10" x1="14" y1="34" x2="18" y2="34"/>
<line fill="none" stroke="#000000" stroke-width="2" stroke-linecap="round" stroke-miterlimit="10" x1="14" y1="39" x2="18" y2="39"/>
<line fill="none" stroke="#000000" stroke-width="2" stroke-linecap="round" stroke-miterlimit="10" x1="14" y1="44" x2="18" y2="44"/>
<line fill="none" stroke="#CCCCCC" stroke-width="2" stroke-miterlimit="10" x1="21" y1="33" x2="43" y2="33"/>
<line fill="none" stroke="#CCCCCC" stroke-width="2" stroke-miterlimit="10" x1="21" y1="37" x2="43" y2="37"/>
<line fill="none" stroke="#CCCCCC" stroke-width="2" stroke-miterlimit="10" x1="21" y1="41" x2="43" y2="41"/>
<line fill="none" stroke="#CCCCCC" stroke-width="2" stroke-miterlimit="10" x1="21" y1="45" x2="43" y2="45"/>
</svg>
