<?xml version="1.0" encoding="utf-8"?>
<!-- Generator: Adobe Illustrator 16.0.3, SVG Export Plug-In . SVG Version: 6.00 Build 0)  -->
<!DOCTYPE svg PUBLIC "-//W3C//DTD SVG 1.1//EN" "http://www.w3.org/Graphics/SVG/1.1/DTD/svg11.dtd">
<svg version="1.1" id="레이어_1" xmlns="http://www.w3.org/2000/svg" xmlns:xlink="http://www.w3.org/1999/xlink" x="0px"
	 y="0px" width="64px" height="64px" viewBox="0 0 64 64" enable-background="new 0 0 64 64" xml:space="preserve">
<g>
	<g>
		
			<rect x="15.151" y="28.636" transform="matrix(-0.7071 0.7071 -0.7071 -0.7071 75.9619 38.5355)" fill="#FFCC00" width="29.698" height="12.728"/>
		<path d="M58,16l1-1l-9-9l-1,1l1,1l-3,3l-3.293-3.293c-0.389-0.389-1.025-0.389-1.414,0l-0.586,0.586
			c-0.389,0.389-0.389,1.025,0,1.414L44,12L14.414,41.586c-0.777,0.777-0.777,2.051,0,2.828L15,45l-2,2l2,2l-6,6h2l5-5l2,2l2-2
			l0.586,0.586c0.389,0.389,0.901,0.583,1.414,0.583s1.025-0.194,1.414-0.583L53,21l2.293,2.293c0.389,0.389,1.025,0.389,1.414,0
			l0.586-0.586c0.389-0.389,0.389-1.025,0-1.414L54,18l3-3L58,16z M22,47.758L17.242,43l2.672-2.672l1.379,1.379
			C21.488,41.902,21.744,42,22,42s0.512-0.098,0.707-0.293c0.391-0.391,0.391-1.023,0-1.414l-1.379-1.379l2.086-2.086l2.879,2.879
			C26.488,39.902,26.744,40,27,40s0.512-0.098,0.707-0.293c0.391-0.391,0.391-1.023,0-1.414l-2.879-2.879l2.086-2.086l1.379,1.379
			C28.488,34.902,28.744,35,29,35s0.512-0.098,0.707-0.293c0.391-0.391,0.391-1.023,0-1.414l-1.379-1.379l2.086-2.086l2.879,2.879
			C33.488,32.902,33.744,33,34,33s0.512-0.098,0.707-0.293c0.391-0.391,0.391-1.023,0-1.414l-2.879-2.879l2.086-2.086l1.379,1.379
			C35.488,27.902,35.744,28,36,28s0.512-0.098,0.707-0.293c0.391-0.391,0.391-1.023,0-1.414l-1.379-1.379l2.086-2.086l2.879,2.879
			C40.488,25.902,40.744,26,41,26s0.512-0.098,0.707-0.293c0.391-0.391,0.391-1.023,0-1.414l-2.879-2.879l2.086-2.086l1.379,1.379
			C42.488,20.902,42.744,21,43,21s0.512-0.098,0.707-0.293c0.391-0.391,0.391-1.023,0-1.414l-1.379-1.379L45,15.243L49.758,20
			L22,47.758z"/>
	</g>
</g>
</svg>
