<?xml version="1.0" encoding="utf-8"?>
<!-- Generator: Adobe Illustrator 16.0.3, SVG Export Plug-In . SVG Version: 6.00 Build 0)  -->
<!DOCTYPE svg PUBLIC "-//W3C//DTD SVG 1.1//EN" "http://www.w3.org/Graphics/SVG/1.1/DTD/svg11.dtd">
<svg version="1.1" id="레이어_1" xmlns="http://www.w3.org/2000/svg" xmlns:xlink="http://www.w3.org/1999/xlink" x="0px"
	 y="0px" width="64px" height="64px" viewBox="0 0 64 64" enable-background="new 0 0 64 64" xml:space="preserve">
<g>
	<g>
		<path fill="#FFCC00" d="M49.719,31.121l-9.781-10l-15.063,15L13.749,25.12L9,29.682V52.5c0,1.381,1.119,2.5,2.5,2.5h40
			c1.381,0,2.5-1.119,2.5-2.5V26.691L49.719,31.121z"/>
		<g>
			<path d="M52,11c0.542,0,1,0.458,1,1v40c0,0.542-0.458,1-1,1H12c-0.542,0-1-0.458-1-1V12c0-0.542,0.458-1,1-1H52 M52,8H12
				c-2.2,0-4,1.8-4,4v40c0,2.2,1.8,4,4,4h40c2.2,0,4-1.8,4-4V12C56,9.8,54.2,8,52,8L52,8z"/>
		</g>
		<path d="M19,51c0,0.55-0.45,1-1,1h-4c-0.55,0-1-0.45-1-1V41c0-0.55,0.45-1,1-1h4c0.55,0,1,0.45,1,1V51z"/>
		<path d="M30,51c0,0.55-0.45,1-1,1h-4c-0.55,0-1-0.45-1-1v-7c0-0.55,0.45-1,1-1h4c0.55,0,1,0.45,1,1V51z"/>
		<path d="M41,51c0,0.55-0.45,1-1,1h-4c-0.55,0-1-0.45-1-1V37c0-0.55,0.45-1,1-1h4c0.55,0,1,0.45,1,1V51z"/>
		<path d="M51,51c0,0.55-0.45,1-1,1h-4c-0.55,0-1-0.45-1-1V41c0-0.55,0.45-1,1-1h4c0.55,0,1,0.45,1,1V51z"/>
		<polygon points="40,19 25,34 14,23 10,26.99 10,31.228 13.997,27.24 22.879,36.121 25,38.242 27.121,36.121 40,23.243 
			47.879,31.121 50,33.242 52.121,31.121 54,29.243 54,25 50,29 		"/>
	</g>
</g>
</svg>
